<svg width="192" height="192" viewBox="0 0 192 192" fill="none" xmlns="http://www.w3.org/2000/svg">
  <rect width="192" height="192" rx="42" fill="url(#gradient)"/>
  <path d="M48 96C48 69.4903 69.4903 48 96 48C122.51 48 144 69.4903 144 96C144 122.51 122.51 144 96 144C69.4903 144 48 122.51 48 96Z" fill="white" fill-opacity="0.2"/>
  <path d="M96 60C76.1177 60 60 76.1177 60 96C60 115.882 76.1177 132 96 132C115.882 132 132 115.882 132 96C132 76.1177 115.882 60 96 60ZM96 120C82.7451 120 72 109.255 72 96C72 82.7451 82.7451 72 96 72C109.255 72 120 82.7451 120 96C120 109.255 109.255 120 96 120Z" fill="white"/>
  <path d="M96 78C86.0589 78 78 86.0589 78 96C78 105.941 86.0589 114 96 114C105.941 114 114 105.941 114 96C114 86.0589 105.941 78 96 78Z" fill="white"/>
  <defs>
    <linearGradient id="gradient" x1="0" y1="0" x2="192" y2="192" gradientUnits="userSpaceOnUse">
      <stop stop-color="#667eea"/>
      <stop offset="1" stop-color="#764ba2"/>
    </linearGradient>
  </defs>
</svg>
