<svg width="512" height="512" viewBox="0 0 512 512" fill="none" xmlns="http://www.w3.org/2000/svg">
  <rect width="512" height="512" rx="112" fill="url(#gradient)"/>
  <path d="M128 256C128 185.307 185.307 128 256 128C326.693 128 384 185.307 384 256C384 326.693 326.693 384 256 384C185.307 384 128 326.693 128 256Z" fill="white" fill-opacity="0.2"/>
  <path d="M256 160C207.647 160 168 199.647 168 248C168 296.353 207.647 336 256 336C304.353 336 344 296.353 344 248C344 199.647 304.353 160 256 160ZM256 312C220.654 312 192 283.346 192 248C192 212.654 220.654 184 256 184C291.346 184 320 212.654 320 248C320 283.346 291.346 312 256 312Z" fill="white"/>
  <path d="M256 208C230.804 208 210 228.804 210 254C210 279.196 230.804 300 256 300C281.196 300 302 279.196 302 254C302 228.804 281.196 208 256 208Z" fill="white"/>
  <defs>
    <linearGradient id="gradient" x1="0" y1="0" x2="512" y2="512" gradientUnits="userSpaceOnUse">
      <stop stop-color="#667eea"/>
      <stop offset="1" stop-color="#764ba2"/>
    </linearGradient>
  </defs>
</svg>
